<?xml version="1.0" standalone="no"?>
<!DOCTYPE svg PUBLIC "-//W3C//DTD SVG 20010904//EN"
 "http://www.w3.org/TR/2001/REC-SVG-20010904/DTD/svg10.dtd">
<svg version="1.0" xmlns="http://www.w3.org/2000/svg"
 width="200.000000pt" height="200.000000pt" viewBox="0 0 200.000000 200.000000"
 preserveAspectRatio="xMidYMid meet">
<metadata>
Created by potrace 1.14, written by Peter Selinger 2001-2017
</metadata>
<g transform="translate(0.000000,200.000000) scale(0.100000,-0.100000)"
fill="#000000" stroke="none">
<path d="M865 1980 c-16 -3 -29 -9 -27 -13 1 -4 2 -16 2 -28 0 -11 4 -17 10
-14 5 3 48 8 94 10 94 4 105 7 102 33 -3 14 -14 17 -77 17 -41 1 -87 -2 -104
-5z"/>
<path d="M1099 1976 c-1 -6 -2 -18 -3 -26 -1 -11 17 -18 64 -27 139 -26 137
-26 143 -4 6 24 -17 33 -131 55 -52 10 -72 11 -73 2z"/>
<path d="M1708 1979 c-10 -5 -18 -7 -18 -4 0 3 -14 -2 -31 -10 -33 -18 -99
-83 -99 -100 0 -5 -4 -16 -9 -24 -7 -11 -13 -12 -23 -3 -20 16 -151 82 -164
82 -9 0 -29 -43 -21 -45 13 -2 146 -72 159 -82 14 -13 17 -12 26 2 7 13 9 3 9
-37 0 -62 22 -116 67 -160 37 -38 100 -67 143 -68 28 0 36 -7 68 -60 32 -52
39 -59 56 -50 24 14 24 17 -6 65 -24 40 -32 67 -17 63 16 -6 81 44 106 82 64
97 51 214 -35 298 -52 51 -165 78 -211 51z"/>
<path d="M720 1949 c-46 -13 -140 -50 -140 -56 0 -2 5 -13 10 -23 10 -19 12
-19 63 2 28 11 71 25 95 30 36 8 43 13 40 31 -4 25 -20 29 -68 16z"/>
<path d="M461 1830 c-91 -59 -107 -76 -91 -95 19 -23 26 -20 84 30 6 6 22 16
36 23 50 26 62 40 55 61 -3 12 -10 21 -14 21 -4 0 -36 -18 -70 -40z"/>
<path d="M262 1662 c-83 -91 -88 -100 -66 -117 25 -19 26 -19 50 15 11 16 40
50 64 76 42 45 42 46 24 65 -19 18 -20 17 -72 -39z"/>
<path d="M865 1704 c-333 -63 -582 -357 -587 -694 -3 -233 92 -435 274 -582
74 -61 193 -120 268 -134 14 -3 42 -9 63 -14 49 -10 185 -11 234 0 21 5 49 11
63 14 107 20 252 106 348 206 63 65 152 214 152 253 0 7 5 18 12 25 7 7 9 12
5 12 -3 0 -2 11 3 24 14 37 24 134 22 211 -6 225 -139 455 -334 578 -56 35
-178 90 -178 80 0 -3 -6 0 -14 6 -8 6 -18 11 -22 9 -5 -1 -24 2 -42 6 -57 13
-194 13 -267 0z"/>
<path d="M125 1470 c-14 -22 -25 -46 -25 -55 0 -8 -4 -15 -8 -15 -4 0 -13 -18
-19 -41 -10 -37 -9 -41 11 -49 16 -6 23 -3 30 14 5 11 23 50 40 86 17 36 32
68 34 72 2 4 -6 12 -17 18 -18 9 -24 5 -46 -30z"/>
<path d="M1910 1381 c0 -5 -9 -11 -20 -14 l-20 -5 20 -51 c17 -45 23 -65 34
-121 3 -14 10 -15 47 -11 7 1 9 10 5 24 -4 12 -9 31 -11 41 -8 35 -47 146 -51
146 -2 0 -4 -4 -4 -9z"/>
<path d="M32 1227 c-7 -24 -14 -68 -18 -98 -3 -30 -8 -57 -11 -61 -2 -5 9 -8
25 -8 28 0 29 2 36 58 4 31 12 74 18 95 12 41 12 42 -18 51 -19 6 -23 1 -32
-37z"/>
<path d="M1945 1121 c-2 -5 -3 -46 -2 -92 2 -46 -2 -119 -8 -161 -10 -76 -10
-77 13 -81 13 -3 25 1 28 7 10 26 19 137 18 206 -2 126 -2 126 -24 127 -11 1
-22 -2 -25 -6z"/>
<path d="M6 938 c8 -124 16 -148 45 -141 18 5 19 11 13 72 -4 36 -8 81 -9 100
-1 29 -5 35 -28 38 l-26 4 5 -73z"/>
<path d="M65 751 c-3 -6 -11 -9 -16 -6 -5 4 -9 0 -9 -8 0 -18 33 -115 55 -161
15 -31 19 -34 36 -23 23 14 23 23 5 58 -7 15 -21 51 -31 80 -20 61 -30 76 -40
60z"/>
<path d="M1890 678 c-13 -35 -28 -72 -34 -83 -14 -26 -14 -38 -1 -47 27 -20
47 8 86 121 20 57 18 71 -10 71 -14 0 -25 -17 -41 -62z"/>
<path d="M158 509 c-22 -12 -16 -30 36 -99 62 -83 62 -84 86 -67 19 13 19 15
-25 73 -25 32 -49 64 -55 71 -5 7 -10 17 -10 23 0 12 -10 12 -32 -1z"/>
<path d="M1776 455 c-21 -30 -49 -65 -62 -78 -23 -23 -23 -25 -5 -41 18 -16
20 -16 43 6 13 13 33 36 43 52 67 98 63 90 46 103 -24 18 -24 18 -65 -42z"/>
<path d="M313 301 c-10 -16 -6 -23 28 -53 22 -20 58 -48 80 -64 40 -27 42 -28
55 -9 15 21 13 25 -56 76 -19 15 -46 36 -59 48 -29 26 -33 26 -48 2z"/>
<path d="M1638 297 c-7 -7 -31 -26 -53 -42 -22 -17 -46 -36 -53 -42 -7 -7 -17
-13 -22 -13 -10 0 -1 -38 11 -46 10 -6 89 46 137 92 30 28 33 35 22 49 -15 18
-25 19 -42 2z"/>
<path d="M522 150 c-10 -17 -9 -22 13 -36 14 -9 55 -29 92 -44 61 -25 69 -26
81 -12 17 22 15 33 -8 39 -12 3 -53 21 -91 39 -39 19 -71 34 -72 34 -1 0 -8
-9 -15 -20z"/>
<path d="M1353 122 c-82 -36 -91 -44 -75 -70 7 -9 19 -9 58 4 27 9 55 21 62
27 6 5 12 6 12 1 0 -5 4 -4 8 1 4 6 19 16 35 23 24 10 26 14 15 32 -16 25 -16
25 -115 -18z"/>
<path d="M765 60 c-11 -36 3 -42 141 -56 l61 -6 -1 28 c-1 19 -6 28 -15 26
-16 -3 -141 15 -164 24 -10 3 -18 -2 -22 -16z"/>
<path d="M1175 68 c-41 -9 -93 -16 -132 -17 -18 -1 -23 -7 -23 -27 0 -26 0
-27 63 -21 142 13 156 18 139 58 -6 12 -15 14 -47 7z"/>
</g>
</svg>
